<?xml version="1.0" encoding="UTF-8" standalone="no"?>
<!DOCTYPE svg PUBLIC "-//W3C//DTD SVG 1.1//EN" "http://www.w3.org/Graphics/SVG/1.1/DTD/svg11.dtd">
<svg width="100%" height="100%" viewBox="0 0 417 417" version="1.1" xmlns="http://www.w3.org/2000/svg" xmlns:xlink="http://www.w3.org/1999/xlink" xml:space="preserve" xmlns:serif="http://www.serif.com/" style="fill-rule:evenodd;clip-rule:evenodd;stroke-linejoin:round;stroke-miterlimit:2;">
    <g transform="matrix(-0.816322,0,0,1.47164,487.664,-54.213)">
        <path d="M225.089,73.138C225.089,71.941 223.729,70.873 221.694,70.474C219.659,70.074 217.392,70.43 216.034,71.361C195.422,85.495 145.486,119.736 128.653,131.279C124.999,133.785 123.005,136.91 123.005,140.133C123.005,162.73 123.005,255.714 123.005,283.67C123.005,284.868 124.365,285.935 126.4,286.334C128.435,286.734 130.702,286.378 132.06,285.447C152.672,271.314 202.608,237.072 219.441,225.529C223.095,223.023 225.089,219.898 225.089,216.675C225.089,194.078 225.089,101.094 225.089,73.138Z"/>
    </g>
    <g transform="matrix(0.816322,0,0,1.47164,112.07,-54.213)">
        <path d="M225.089,73.138C225.089,71.941 223.729,70.873 221.694,70.474C219.659,70.074 217.392,70.43 216.034,71.361C195.422,85.495 145.486,119.736 128.653,131.279C124.999,133.785 123.005,136.91 123.005,140.133C123.005,162.73 123.005,255.714 123.005,283.67C123.005,284.868 124.365,285.935 126.4,286.334C128.435,286.734 130.702,286.378 132.06,285.447C152.672,271.314 202.608,237.072 219.441,225.529C223.095,223.023 225.089,219.898 225.089,216.675C225.089,194.078 225.089,101.094 225.089,73.138Z"/>
    </g>
    <g transform="matrix(0.816322,0,0,1.47164,-70.9978,-54.213)">
        <path d="M225.089,73.138C225.089,71.941 223.729,70.873 221.694,70.474C219.659,70.074 217.392,70.43 216.034,71.361C195.422,85.495 145.486,119.736 128.653,131.279C124.999,133.785 123.005,136.91 123.005,140.133C123.005,162.73 123.005,255.714 123.005,283.67C123.005,284.868 124.365,285.935 126.4,286.334C128.435,286.734 130.702,286.378 132.06,285.447C152.657,271.324 202.536,237.121 219.405,225.554C223.083,223.032 225.089,219.887 225.089,216.643C225.089,193.989 225.089,101.081 225.089,73.138Z"/>
    </g>
    <g transform="matrix(-0.816322,0,0,1.47164,304.596,-54.213)">
        <path d="M225.089,73.138C225.089,71.941 223.729,70.873 221.694,70.474C219.659,70.074 217.392,70.43 216.034,71.361C195.422,85.495 145.486,119.736 128.653,131.279C124.999,133.785 123.005,136.91 123.005,140.133C123.005,162.73 123.005,255.714 123.005,283.67C123.005,284.868 124.365,285.935 126.4,286.334C128.435,286.734 130.702,286.378 132.06,285.447C152.657,271.324 202.533,237.123 219.403,225.555C223.082,223.033 225.089,219.886 225.089,216.642L225.089,73.138Z"/>
    </g>
    <g transform="matrix(0.418956,-8.28043e-18,2.06336e-17,-1.21246,23.5954,651.153)">
        <ellipse cx="97.69" cy="373.574" rx="19.891" ry="20.619" style="fill:white;"/>
    </g>
    <g>
        <g transform="matrix(0.418956,-8.28043e-18,2.06336e-17,-1.21246,106.831,718.102)">
            <ellipse cx="97.69" cy="373.574" rx="19.891" ry="20.619" style="fill:white;"/>
        </g>
        <g transform="matrix(0.418956,-8.28043e-18,2.06336e-17,-1.21246,144.556,614.956)">
            <ellipse cx="97.69" cy="373.574" rx="19.891" ry="20.619" style="fill:white;"/>
        </g>
        <g transform="matrix(0.410048,0.159387,-0.434557,1.11797,273.059,-206.094)">
            <path d="M132.385,318.345C132.385,316.088 127.389,314.256 121.236,314.256C115.082,314.256 110.087,316.088 110.087,318.345L110.087,397.871C110.087,400.128 115.082,401.96 121.236,401.96C127.389,401.96 132.385,400.128 132.385,397.871L132.385,318.345Z" style="fill:white;"/>
        </g>
    </g>
    <g transform="matrix(0.418956,-8.28043e-18,2.06336e-17,-1.21246,324.52,633.547)">
        <ellipse cx="97.69" cy="373.574" rx="19.891" ry="20.619" style="fill:white;"/>
    </g>
    <g transform="matrix(0.418956,-8.28043e-18,2.06336e-17,-1.21246,304.278,737.859)">
        <ellipse cx="97.69" cy="373.574" rx="19.891" ry="20.619" style="fill:white;"/>
    </g>
    <g transform="matrix(0.418956,-8.28043e-18,2.06336e-17,-1.21246,282.572,628.721)">
        <ellipse cx="97.69" cy="373.574" rx="19.891" ry="20.619" style="fill:white;"/>
    </g>
    <g>
        <g transform="matrix(0.418956,-8.28043e-18,2.06336e-17,-1.21246,234.658,603.884)">
            <ellipse cx="97.69" cy="373.574" rx="19.891" ry="20.619" style="fill:white;"/>
        </g>
        <g transform="matrix(0.418956,-8.28043e-18,2.06336e-17,-1.21246,184.343,668.544)">
            <ellipse cx="97.69" cy="373.574" rx="19.891" ry="20.619" style="fill:white;"/>
        </g>
        <g transform="matrix(0.642657,0.515724,-0.625783,0.779804,396.554,-157.855)">
            <path d="M132.385,318.915C132.385,316.343 129.852,314.256 126.731,314.256L115.74,314.256C112.62,314.256 110.087,316.343 110.087,318.915L110.087,397.3C110.087,399.872 112.62,401.96 115.74,401.96L126.731,401.96C129.852,401.96 132.385,399.872 132.385,397.3L132.385,318.915Z" style="fill:white;"/>
        </g>
    </g>
</svg>
