<?xml version="1.0" encoding="UTF-8" standalone="no"?>
<!DOCTYPE svg PUBLIC "-//W3C//DTD SVG 1.1//EN" "http://www.w3.org/Graphics/SVG/1.1/DTD/svg11.dtd">
<svg width="100%" height="100%" viewBox="0 0 1167 271" version="1.1" xmlns="http://www.w3.org/2000/svg" xmlns:xlink="http://www.w3.org/1999/xlink" xml:space="preserve" xmlns:serif="http://www.serif.com/" style="fill-rule:evenodd;clip-rule:evenodd;stroke-linejoin:round;stroke-miterlimit:2;">
    <g transform="matrix(1.89477,0,0,1,-838.374,-103.1)">
        <g transform="matrix(140.738,0,0,266.667,434.657,317.583)">
            <path d="M0.872,-0L0.87,-0.7L0.737,-0.7L0.479,-0.265L0.217,-0.7L0.083,-0.7L0.083,-0L0.235,-0L0.235,-0.411L0.44,-0.074L0.513,-0.074L0.719,-0.42L0.72,-0L0.872,-0Z" style="fill:rgb(57,57,57);fill-rule:nonzero;"/>
        </g>
        <g transform="matrix(140.738,0,0,266.667,562.025,317.583)">
            <path d="M0.289,-0.546C0.203,-0.546 0.116,-0.523 0.057,-0.481L0.113,-0.372C0.152,-0.403 0.211,-0.422 0.268,-0.422C0.352,-0.422 0.392,-0.383 0.392,-0.316L0.268,-0.316C0.104,-0.316 0.037,-0.25 0.037,-0.155C0.037,-0.062 0.112,0.008 0.238,0.008C0.317,0.008 0.373,-0.018 0.402,-0.067L0.402,-0L0.548,-0L0.548,-0.307C0.548,-0.47 0.453,-0.546 0.289,-0.546ZM0.277,-0.097C0.222,-0.097 0.189,-0.123 0.189,-0.162C0.189,-0.198 0.212,-0.225 0.285,-0.225L0.392,-0.225L0.392,-0.17C0.374,-0.121 0.329,-0.097 0.277,-0.097Z" style="fill:rgb(57,57,57);fill-rule:nonzero;"/>
        </g>
        <g transform="matrix(140.738,0,0,266.667,641.824,317.583)">
            <path d="M0.39,-0.546C0.318,-0.546 0.26,-0.523 0.221,-0.476L0.221,-0.538L0.072,-0.538L0.072,0.194L0.228,0.194L0.228,-0.057C0.268,-0.013 0.323,0.008 0.39,0.008C0.541,0.008 0.658,-0.1 0.658,-0.269C0.658,-0.438 0.541,-0.546 0.39,-0.546ZM0.363,-0.12C0.285,-0.12 0.226,-0.176 0.226,-0.269C0.226,-0.362 0.285,-0.418 0.363,-0.418C0.441,-0.418 0.5,-0.362 0.5,-0.269C0.5,-0.176 0.441,-0.12 0.363,-0.12Z" style="fill:rgb(57,57,57);fill-rule:nonzero;"/>
        </g>
        <g transform="matrix(140.738,0,0,266.667,729.786,317.583)">
            <path d="M0.456,-0.538L0.302,-0.172L0.153,-0.538L-0.008,-0.538L0.218,-0L0.379,-0L0.606,-0.538L0.456,-0.538Z" style="fill:rgb(154,154,154);fill-rule:nonzero;"/>
        </g>
        <g transform="matrix(140.738,0,0,266.667,806.91,317.583)">
            <path d="M0.15,-0.613C0.208,-0.613 0.247,-0.651 0.247,-0.703C0.247,-0.751 0.208,-0.787 0.15,-0.787C0.092,-0.787 0.053,-0.749 0.053,-0.7C0.053,-0.651 0.092,-0.613 0.15,-0.613ZM0.072,-0L0.228,-0L0.228,-0.538L0.072,-0.538L0.072,-0Z" style="fill:rgb(154,154,154);fill-rule:nonzero;"/>
        </g>
        <g transform="matrix(140.738,0,0,266.667,842.236,317.583)">
            <path d="M0.599,-0.267C0.599,-0.44 0.477,-0.546 0.319,-0.546C0.155,-0.546 0.032,-0.43 0.032,-0.269C0.032,-0.109 0.153,0.008 0.339,0.008C0.436,0.008 0.511,-0.022 0.561,-0.079L0.478,-0.169C0.441,-0.134 0.4,-0.117 0.343,-0.117C0.261,-0.117 0.204,-0.158 0.189,-0.225L0.596,-0.225C0.597,-0.238 0.599,-0.255 0.599,-0.267ZM0.32,-0.428C0.39,-0.428 0.441,-0.384 0.452,-0.316L0.187,-0.316C0.198,-0.385 0.249,-0.428 0.32,-0.428Z" style="fill:rgb(154,154,154);fill-rule:nonzero;"/>
        </g>
        <g transform="matrix(140.738,0,0,266.667,922.597,317.583)">
            <path d="M0.798,-0.538L0.667,-0.174L0.539,-0.538L0.407,-0.538L0.275,-0.174L0.148,-0.538L0.001,-0.538L0.195,-0L0.345,-0L0.47,-0.334L0.591,-0L0.741,-0L0.936,-0.538L0.798,-0.538Z" style="fill:rgb(154,154,154);fill-rule:nonzero;"/>
        </g>
    </g>
</svg>
